<?xml version="1.0" encoding="UTF-8" standalone="no"?>
<!-- Created with Inkscape (http://www.inkscape.org/) -->

<svg
   xmlns:dc="http://purl.org/dc/elements/1.1/"
   xmlns:cc="http://creativecommons.org/ns#"
   xmlns:rdf="http://www.w3.org/1999/02/22-rdf-syntax-ns#"
   xmlns:svg="http://www.w3.org/2000/svg"
   xmlns="http://www.w3.org/2000/svg"
   xmlns:sodipodi="http://sodipodi.sourceforge.net/DTD/sodipodi-0.dtd"
   xmlns:inkscape="http://www.inkscape.org/namespaces/inkscape"
   width="43.118099mm"
   height="43.118099mm"
   viewBox="0 0 43.118099 43.118099"
   version="1.1"
   id="svg1743"
   inkscape:version="0.92.3 (2405546, 2018-03-11)"
   sodipodi:docname="icon_4_on.svg">
  <defs
     id="defs1737">
    <filter
       inkscape:collect="always"
       style="color-interpolation-filters:sRGB"
       id="filter1120"
       x="-0.024"
       width="1.048"
       y="-0.024"
       height="1.048">
      <feGaussianBlur
         inkscape:collect="always"
         stdDeviation="1.5550195"
         id="feGaussianBlur1122" />
    </filter>
    <filter
       inkscape:collect="always"
       style="color-interpolation-filters:sRGB"
       id="filter1132"
       x="-0.024"
       width="1.048"
       y="-0.024"
       height="1.048">
      <feGaussianBlur
         inkscape:collect="always"
         stdDeviation="1.3127539"
         id="feGaussianBlur1134" />
    </filter>
    <filter
       inkscape:collect="always"
       style="color-interpolation-filters:sRGB"
       id="filter1166"
       x="-0.035999998"
       width="1.072"
       y="-0.035999998"
       height="1.072">
      <feGaussianBlur
         inkscape:collect="always"
         stdDeviation="1.6479492"
         id="feGaussianBlur1168" />
    </filter>
    <filter
       inkscape:collect="always"
       style="color-interpolation-filters:sRGB"
       id="filter1443"
       x="-0.034071263"
       width="1.0681425"
       y="-0.038160209"
       height="1.0763204">
      <feGaussianBlur
         inkscape:collect="always"
         stdDeviation="0.21970317"
         id="feGaussianBlur1445" />
    </filter>
  </defs>
  <sodipodi:namedview
     id="base"
     pagecolor="#ffffff"
     bordercolor="#666666"
     borderopacity="1.0"
     inkscape:pageopacity="0.0"
     inkscape:pageshadow="2"
     inkscape:zoom="0.49497475"
     inkscape:cx="-419.35093"
     inkscape:cy="22.202875"
     inkscape:document-units="mm"
     inkscape:current-layer="layer1"
     showgrid="false"
     inkscape:window-width="1366"
     inkscape:window-height="709"
     inkscape:window-x="-8"
     inkscape:window-y="-8"
     inkscape:window-maximized="1" />
  <metadata
     id="metadata1740">
    <rdf:RDF>
      <cc:Work
         rdf:about="">
        <dc:format>image/svg+xml</dc:format>
        <dc:type
           rdf:resource="http://purl.org/dc/dcmitype/StillImage" />
        <dc:title />
      </cc:Work>
    </rdf:RDF>
  </metadata>
  <g
     inkscape:label="Layer 1"
     inkscape:groupmode="layer"
     id="layer1"
     transform="translate(-83.440951,-126.94095)">
    <path
       sodipodi:nodetypes="cccccccccccc"
       inkscape:connector-curvature="0"
       id="path1431"
       d="m 173.37318,137.49403 4.02816,6.8837 4.02816,6.88369 -7.97554,0.0466 -6.96108,0.042 3.13486,-1.86857 8.61719,-0.12806 -4.87831,-8.36635 -4.40229,7.85188 -3.01633,1.59912 3.4778,-6.01373 z"
       inkscape:transform-center-y="-2.3006511"
       inkscape:transform-center-x="0.0020041749"
       style="display:inline;opacity:1;fill:#699c9d;fill-opacity:1;stroke:none;stroke-width:0.30159286;stroke-opacity:0.39215686;filter:url(#filter1443)"
       transform="rotate(0.35997641,-509.72591,-10786.374)" />
    <path
       style="display:inline;opacity:1;fill:#def1f8;fill-opacity:1;stroke:#699c9d;stroke-width:0.30159286;stroke-opacity:0.39215686"
       inkscape:transform-center-x="0.0020041749"
       inkscape:transform-center-y="-2.3006511"
       d="m 104.83574,141.66646 3.98484,6.90887 3.98483,6.90886 -7.97568,-0.004 -6.961196,-0.002 3.146526,-1.84883 8.61783,-0.0739 -4.82565,-8.39684 -4.45154,7.82407 -3.026306,1.5801 3.515506,-5.99177 z"
       id="path1428"
       inkscape:connector-curvature="0"
       sodipodi:nodetypes="cccccccccccc" />
    <path
       inkscape:connector-curvature="0"
       style="display:inline;opacity:1;fill:#32646b;fill-opacity:1;stroke:none;stroke-width:1.29796147;stroke-opacity:0.39215686;filter:url(#filter1166)"
       d="M 81.682267,26.630487 A 54.931594,54.931594 0 0 0 26.750628,81.562127 54.931594,54.931594 0 0 0 81.682267,136.49377 54.931594,54.931594 0 0 0 136.61391,81.562127 54.931594,54.931594 0 0 0 81.682267,26.630487 Z m -0.0781,4.49414 a 50.12882,50.12882 0 0 1 50.128903,50.1289 50.12882,50.12882 0 0 1 -50.128903,50.128913 50.12882,50.12882 0 0 1 -50.128909,-50.128913 50.12882,50.12882 0 0 1 50.128909,-50.1289 z"
       id="path1226"
       transform="matrix(0.26458333,0,0,0.26458333,83.388233,126.92002)" />
    <path
       inkscape:connector-curvature="0"
       id="path1230"
       d="M 105,133.96601 A 14.533982,14.533984 0 0 0 90.466008,148.50001 14.533982,14.533984 0 0 0 105,163.03399 14.533982,14.533984 0 0 0 119.53399,148.50001 14.533982,14.533984 0 0 0 105,133.96601 Z m -0.0207,1.18906 a 13.263248,13.26325 0 0 1 13.26327,13.26329 13.263248,13.26325 0 0 1 -13.26327,13.26327 13.263248,13.26325 0 0 1 -13.263272,-13.26327 13.263248,13.26325 0 0 1 13.263272,-13.26329 z"
       style="display:inline;opacity:1;fill:#68ced3;fill-opacity:1;stroke:#32646b;stroke-width:0.34341899;stroke-opacity:0.39215686" />
    <path
       inkscape:connector-curvature="0"
       style="display:inline;opacity:1;fill:#498a8e;fill-opacity:1;stroke:none;stroke-width:1.81966603;stroke-opacity:0.39215686;filter:url(#filter1132)"
       d="M 81.481097,15.886347 A 65.637962,65.637962 0 0 0 15.844378,81.525017 65.637962,65.637962 0 0 0 81.481097,147.16174 65.637962,65.637962 0 0 0 147.11977,81.525017 65.637962,65.637962 0 0 0 81.481097,15.886347 Z m 0.26953,5.68945 a 60,60 0 0 1 60.000003,60 60,60 0 0 1 -60.000003,60.000003 60,60 0 0 1 -59.999999,-60.000003 60,60 0 0 1 59.999999,-60 z"
       id="path1234"
       transform="matrix(0.26458333,0,0,0.26458333,83.441202,126.9301)" />
    <path
       inkscape:connector-curvature="0"
       id="path1238"
       d="m 104.99974,131.13336 a 17.366709,17.366711 0 0 0 -17.36638,17.3669 17.366709,17.366711 0 0 0 17.36638,17.36638 17.366709,17.366711 0 0 0 17.3669,-17.36638 17.366709,17.366711 0 0 0 -17.3669,-17.3669 z m 0.0713,1.50533 a 15.874998,15.875 0 0 1 15.875,15.875 15.874998,15.875 0 0 1 -15.875,15.875 15.874998,15.875 0 0 1 -15.875,-15.875 15.874998,15.875 0 0 1 15.875,-15.875 z"
       style="display:inline;opacity:1;fill:#9af3ef;fill-opacity:1;stroke:#498a8e;stroke-width:0.4814533;stroke-opacity:0.39215686" />
    <path
       inkscape:connector-curvature="0"
       id="path1242"
       d="M 81.482047,3.7320468 A 77.750734,77.750734 0 0 0 3.7320468,81.482047 77.750734,77.750734 0 0 0 81.482047,159.234 77.750734,77.750734 0 0 0 159.234,81.482047 77.750734,77.750734 0 0 0 81.482047,3.7320468 Z m 0.20703,8.5566402 A 69.285711,69.285711 0 0 1 150.97619,81.575797 69.285711,69.285711 0 0 1 81.689077,150.86096 69.285711,69.285711 0 0 1 12.403922,81.575797 69.285711,69.285711 0 0 1 81.689077,12.288687 Z"
       style="display:inline;opacity:1;fill:#689696;fill-opacity:1;stroke-width:1.84493256;filter:url(#filter1120)"
       transform="matrix(0.26458333,0,0,0.26458333,83.440951,126.94095)" />
    <path
       inkscape:connector-curvature="0"
       id="path1246"
       d="m 105.00025,127.92839 a 20.571546,20.571548 0 0 0 -20.571862,20.57186 20.571546,20.571548 0 0 0 20.571862,20.57136 20.571546,20.571548 0 0 0 20.57136,-20.57136 20.571546,20.571548 0 0 0 -20.57136,-20.57186 z m -0.0155,2.28926 a 18.331842,18.331844 0 0 1 18.33169,18.33221 18.331842,18.331844 0 0 1 -18.33169,18.33171 18.331842,18.331844 0 0 1 -18.332202,-18.33171 18.331842,18.331844 0 0 1 18.332202,-18.33221 z"
       style="display:inline;opacity:1;fill:#dff2f9;fill-opacity:1;stroke:#689696;stroke-width:0.48813841;stroke-opacity:0.39215686" />
  </g>
</svg>
