<?xml version="1.0" encoding="UTF-8" standalone="no"?>
<!-- Created with Inkscape (http://www.inkscape.org/) -->

<svg
   xmlns:dc="http://purl.org/dc/elements/1.1/"
   xmlns:cc="http://creativecommons.org/ns#"
   xmlns:rdf="http://www.w3.org/1999/02/22-rdf-syntax-ns#"
   xmlns:svg="http://www.w3.org/2000/svg"
   xmlns="http://www.w3.org/2000/svg"
   xmlns:sodipodi="http://sodipodi.sourceforge.net/DTD/sodipodi-0.dtd"
   xmlns:inkscape="http://www.inkscape.org/namespaces/inkscape"
   width="43.118099mm"
   height="43.118099mm"
   viewBox="0 0 43.118099 43.118099"
   version="1.1"
   id="svg1743"
   inkscape:version="0.92.3 (2405546, 2018-03-11)"
   sodipodi:docname="icon_1_on.svg">
  <defs
     id="defs1737">
    <filter
       inkscape:collect="always"
       style="color-interpolation-filters:sRGB"
       id="filter1120"
       x="-0.024"
       width="1.048"
       y="-0.024"
       height="1.048">
      <feGaussianBlur
         inkscape:collect="always"
         stdDeviation="1.5550195"
         id="feGaussianBlur1122" />
    </filter>
    <filter
       inkscape:collect="always"
       style="color-interpolation-filters:sRGB"
       id="filter1132"
       x="-0.024"
       width="1.048"
       y="-0.024"
       height="1.048">
      <feGaussianBlur
         inkscape:collect="always"
         stdDeviation="1.3127539"
         id="feGaussianBlur1134" />
    </filter>
    <filter
       inkscape:collect="always"
       style="color-interpolation-filters:sRGB"
       id="filter1166"
       x="-0.035999998"
       width="1.072"
       y="-0.035999998"
       height="1.072">
      <feGaussianBlur
         inkscape:collect="always"
         stdDeviation="1.6479492"
         id="feGaussianBlur1168" />
    </filter>
    <filter
       inkscape:collect="always"
       style="color-interpolation-filters:sRGB"
       id="filter1274"
       x="-0.03835386"
       width="1.0767077"
       y="-0.033918355"
       height="1.0678366">
      <feGaussianBlur
         inkscape:collect="always"
         stdDeviation="0.2363195"
         id="feGaussianBlur1276" />
    </filter>
  </defs>
  <sodipodi:namedview
     id="base"
     pagecolor="#ffffff"
     bordercolor="#666666"
     borderopacity="1.0"
     inkscape:pageopacity="0.0"
     inkscape:pageshadow="2"
     inkscape:zoom="0.7"
     inkscape:cx="43.189792"
     inkscape:cy="109.13513"
     inkscape:document-units="mm"
     inkscape:current-layer="layer1"
     showgrid="false"
     inkscape:window-width="1366"
     inkscape:window-height="709"
     inkscape:window-x="-8"
     inkscape:window-y="-8"
     inkscape:window-maximized="1" />
  <metadata
     id="metadata1740">
    <rdf:RDF>
      <cc:Work
         rdf:about="">
        <dc:format>image/svg+xml</dc:format>
        <dc:type
           rdf:resource="http://purl.org/dc/dcmitype/StillImage" />
        <dc:title />
      </cc:Work>
    </rdf:RDF>
  </metadata>
  <g
     inkscape:label="Layer 1"
     inkscape:groupmode="layer"
     id="layer1"
     transform="translate(-83.440951,-126.94095)">
    <path
       sodipodi:nodetypes="ccccccccccccccc"
       inkscape:connector-curvature="0"
       id="path1258"
       d="m 99.460305,151.81607 5.061425,2.82303 v 2.22167 l -6.915605,-3.94223 0.0556,-8.56402 7.330335,-4.21528 7.40182,4.17878 -0.0159,8.50281 -6.86898,4.02911 0.0367,-2.17973 5.02124,-2.87663 -0.0198,-6.39145 -5.52438,-3.24157 -5.568175,3.28506 z"
       style="display:inline;opacity:1;fill:#699c9d;fill-opacity:1;stroke:none;stroke-width:0.27718952;stroke-opacity:0.39215686;filter:url(#filter1274)" />
    <path
       style="display:inline;opacity:1;fill:#def1f7;fill-opacity:1;stroke:#699c9d;stroke-width:0.27718952;stroke-opacity:0.39215686"
       d="m 99.460491,151.77655 5.061419,2.82302 v 2.22168 l -6.915599,-3.94223 0.0556,-8.56402 7.330329,-4.21528 7.40182,4.17878 -0.0159,8.50281 -6.86898,4.02911 0.0367,-2.17973 5.02124,-2.87663 -0.0198,-6.39145 -5.52438,-3.24157 -5.568169,3.28506 z"
       id="rect1252"
       inkscape:connector-curvature="0"
       sodipodi:nodetypes="ccccccccccccccc" />
    <path
       id="path1146"
       d="M 81.683217,26.630487 A 54.931594,54.931594 0 0 0 26.751578,81.562127 54.931594,54.931594 0 0 0 81.683217,136.49377 54.931594,54.931594 0 0 0 136.61486,81.562127 54.931594,54.931594 0 0 0 81.683217,26.630487 Z m -0.0781,4.49414 a 50.12882,50.12882 0 0 1 50.128903,50.1289 50.12882,50.12882 0 0 1 -50.128903,50.128913 50.12882,50.12882 0 0 1 -50.128909,-50.128913 50.12882,50.12882 0 0 1 50.128909,-50.1289 z"
       style="display:inline;opacity:1;fill:#32646b;fill-opacity:1;stroke:none;stroke-width:1.29796147;stroke-opacity:0.39215686;filter:url(#filter1166)"
       inkscape:connector-curvature="0"
       transform="matrix(0.26458333,0,0,0.26458333,83.387981,126.92002)" />
    <path
       style="display:inline;opacity:1;fill:#68ced3;fill-opacity:1;stroke:#32646b;stroke-width:0.34341899;stroke-opacity:0.39215686"
       d="M 104.99999,133.96601 A 14.533984,14.533984 0 0 0 90.466005,148.5 a 14.533984,14.533984 0 0 0 14.533985,14.534 14.533984,14.533984 0 0 0 14.534,-14.534 14.533984,14.533984 0 0 0 -14.534,-14.53399 z m -0.0207,1.18907 a 13.26325,13.26325 0 0 1 13.26327,13.26327 13.26325,13.26325 0 0 1 -13.26327,13.26328 13.26325,13.26325 0 0 1 -13.263265,-13.26328 13.26325,13.26325 0 0 1 13.263265,-13.26327 z"
       id="path1140"
       inkscape:connector-curvature="0" />
    <path
       id="path1124"
       d="M 81.482047,15.886347 A 65.637962,65.637962 0 0 0 15.845328,81.525017 65.637962,65.637962 0 0 0 81.482047,147.16174 65.637962,65.637962 0 0 0 147.12072,81.525017 65.637962,65.637962 0 0 0 81.482047,15.886347 Z m 0.26953,5.68945 a 60,60 0 0 1 60.000003,60 60,60 0 0 1 -60.000003,60.000003 60,60 0 0 1 -59.999999,-60.000003 60,60 0 0 1 59.999999,-60 z"
       style="display:inline;opacity:1;fill:#498a8e;fill-opacity:1;stroke:none;stroke-width:1.81966603;stroke-opacity:0.39215686;filter:url(#filter1132)"
       inkscape:connector-curvature="0"
       transform="matrix(0.26458333,0,0,0.26458333,83.440951,126.9301)" />
    <path
       style="display:inline;opacity:1;fill:#9af3ef;fill-opacity:1;stroke:#498a8e;stroke-width:0.4814533;stroke-opacity:0.39215686"
       d="m 104.99975,131.13336 a 17.366711,17.366711 0 0 0 -17.366395,17.36689 17.366711,17.366711 0 0 0 17.366395,17.36639 17.366711,17.366711 0 0 0 17.3669,-17.36639 17.366711,17.366711 0 0 0 -17.3669,-17.36689 z m 0.0713,1.50533 a 15.875,15.875 0 0 1 15.875,15.875 15.875,15.875 0 0 1 -15.875,15.875 15.875,15.875 0 0 1 -15.875005,-15.875 15.875,15.875 0 0 1 15.875005,-15.875 z"
       id="path1115"
       inkscape:connector-curvature="0" />
    <path
       style="display:inline;opacity:1;fill:#689696;fill-opacity:1;stroke-width:1.84493256;filter:url(#filter1120)"
       d="M 81.482047,3.7320468 A 77.750734,77.750734 0 0 0 3.7320468,81.482047 77.750734,77.750734 0 0 0 81.482047,159.234 77.750734,77.750734 0 0 0 159.234,81.482047 77.750734,77.750734 0 0 0 81.482047,3.7320468 Z m 0.20703,8.5566402 A 69.285711,69.285711 0 0 1 150.97619,81.575797 69.285711,69.285711 0 0 1 81.689077,150.86096 69.285711,69.285711 0 0 1 12.403922,81.575797 69.285711,69.285711 0 0 1 81.689077,12.288687 Z"
       id="path25-4"
       inkscape:connector-curvature="0"
       transform="matrix(0.26458333,0,0,0.26458333,83.440951,126.94095)" />
    <path
       style="display:inline;opacity:1;fill:#dff2f9;fill-opacity:1;stroke:#689696;stroke-width:0.48813841;stroke-opacity:0.39215686"
       d="m 105.00026,127.92839 a 20.571548,20.571548 0 0 0 -20.571875,20.57187 20.571548,20.571548 0 0 0 20.571875,20.57135 20.571548,20.571548 0 0 0 20.57136,-20.57135 20.571548,20.571548 0 0 0 -20.57136,-20.57187 z m -0.0155,2.28926 a 18.331844,18.331844 0 0 1 18.3317,18.33222 18.331844,18.331844 0 0 1 -18.3317,18.3317 18.331844,18.331844 0 0 1 -18.332205,-18.3317 18.331844,18.331844 0 0 1 18.332215,-18.33222 z"
       id="path25"
       inkscape:connector-curvature="0" />
  </g>
</svg>
