<?xml version="1.0" encoding="UTF-8" standalone="no"?>
<!-- Created with Inkscape (http://www.inkscape.org/) -->

<svg
   xmlns:dc="http://purl.org/dc/elements/1.1/"
   xmlns:cc="http://creativecommons.org/ns#"
   xmlns:rdf="http://www.w3.org/1999/02/22-rdf-syntax-ns#"
   xmlns:svg="http://www.w3.org/2000/svg"
   xmlns="http://www.w3.org/2000/svg"
   xmlns:sodipodi="http://sodipodi.sourceforge.net/DTD/sodipodi-0.dtd"
   xmlns:inkscape="http://www.inkscape.org/namespaces/inkscape"
   width="41.631359mm"
   height="41.631367mm"
   viewBox="0 0 41.631359 41.631367"
   version="1.1"
   id="svg1743"
   inkscape:version="0.92.3 (2405546, 2018-03-11)"
   sodipodi:docname="icon_1_off.svg">
  <defs
     id="defs1737" />
  <sodipodi:namedview
     id="base"
     pagecolor="#ffffff"
     bordercolor="#666666"
     borderopacity="1.0"
     inkscape:pageopacity="0.0"
     inkscape:pageshadow="2"
     inkscape:zoom="1.979899"
     inkscape:cx="43.211258"
     inkscape:cy="75.958454"
     inkscape:document-units="mm"
     inkscape:current-layer="layer1"
     showgrid="false"
     inkscape:window-width="1366"
     inkscape:window-height="709"
     inkscape:window-x="-8"
     inkscape:window-y="-8"
     inkscape:window-maximized="1" />
  <metadata
     id="metadata1740">
    <rdf:RDF>
      <cc:Work
         rdf:about="">
        <dc:format>image/svg+xml</dc:format>
        <dc:type
           rdf:resource="http://purl.org/dc/dcmitype/StillImage" />
        <dc:title />
      </cc:Work>
    </rdf:RDF>
  </metadata>
  <g
     inkscape:label="Layer 1"
     inkscape:groupmode="layer"
     id="layer1">
    <path
       sodipodi:nodetypes="ccccccccccccccc"
       inkscape:connector-curvature="0"
       id="path1455"
       d="m 15.276165,24.092229 5.061434,2.82303 v 2.22167 l -6.915614,-3.94223 0.0556,-8.56402 7.330334,-4.21528 7.40183,4.17878 -0.0159,8.50281 -6.86899,4.02911 0.0367,-2.17973 5.02124,-2.87663 -0.0198,-6.39145 -5.52438,-3.24157 -5.568164,3.28506 z"
       style="display:inline;opacity:1;fill:#323232;fill-opacity:1;stroke:#000000;stroke-width:0.27718952;stroke-opacity:1" />
    <path
       inkscape:connector-curvature="0"
       id="path1463"
       d="M 20.815689,6.2816892 A 14.533984,14.533984 0 0 0 6.2816842,20.815679 a 14.533984,14.533984 0 0 0 14.5340048,14.534 14.533984,14.533984 0 0 0 14.53398,-14.534 14.533984,14.533984 0 0 0 -14.53398,-14.5339898 z m -0.0207,1.18907 A 13.26325,13.26325 0 0 1 34.058269,20.734029 13.26325,13.26325 0 0 1 20.794979,33.997309 13.26325,13.26325 0 0 1 7.5317142,20.734029 13.26325,13.26325 0 0 1 20.794979,7.4707592 Z"
       style="display:inline;opacity:1;fill:#323232;fill-opacity:1;stroke:#000000;stroke-width:0.34341899;stroke-opacity:1" />
    <path
       inkscape:connector-curvature="0"
       id="path1471"
       d="M 20.815419,3.4490392 A 17.366711,17.366711 0 0 0 3.4490392,20.815929 17.366711,17.366711 0 0 0 20.815419,38.182319 17.366711,17.366711 0 0 0 38.182319,20.815929 17.366711,17.366711 0 0 0 20.815419,3.4490392 Z m 0.0713,1.50533 a 15.875,15.875 0 0 1 15.875,15.8749998 15.875,15.875 0 0 1 -15.87499,15.875 A 15.875,15.875 0 0 1 5.0117292,20.829369 15.875,15.875 0 0 1 20.886729,4.9543692 Z"
       style="display:inline;opacity:1;fill:#323232;fill-opacity:1;stroke:#000000;stroke-width:0.4814533;stroke-opacity:1" />
    <path
       inkscape:connector-curvature="0"
       id="path1479"
       d="M 20.815939,0.24406921 A 20.571548,20.571548 0 0 0 0.24406921,20.815939 20.571548,20.571548 0 0 0 20.815939,41.387299 20.571548,20.571548 0 0 0 41.387289,20.815939 20.571548,20.571548 0 0 0 20.815939,0.24406921 Z m -0.0155,2.28926999 a 18.331844,18.331844 0 0 1 18.33169,18.3322098 18.331844,18.331844 0 0 1 -18.3317,18.3317 A 18.331844,18.331844 0 0 1 2.4682192,20.865549 18.331844,18.331844 0 0 1 20.800429,2.5333392 Z"
       style="display:inline;opacity:1;fill:#323232;fill-opacity:1;stroke:#000000;stroke-width:0.48813841;stroke-opacity:0.97989951" />
  </g>
</svg>
