<?xml version="1.0" encoding="UTF-8" standalone="no"?>
<!-- Created with Inkscape (http://www.inkscape.org/) -->

<svg
   xmlns:dc="http://purl.org/dc/elements/1.1/"
   xmlns:cc="http://creativecommons.org/ns#"
   xmlns:rdf="http://www.w3.org/1999/02/22-rdf-syntax-ns#"
   xmlns:svg="http://www.w3.org/2000/svg"
   xmlns="http://www.w3.org/2000/svg"
   xmlns:sodipodi="http://sodipodi.sourceforge.net/DTD/sodipodi-0.dtd"
   xmlns:inkscape="http://www.inkscape.org/namespaces/inkscape"
   width="41.631374mm"
   height="41.631367mm"
   viewBox="0 0 41.631374 41.631367"
   version="1.1"
   id="svg1743"
   inkscape:version="0.92.3 (2405546, 2018-03-11)"
   sodipodi:docname="icon_3_off.svg">
  <defs
     id="defs1737" />
  <sodipodi:namedview
     id="base"
     pagecolor="#ffffff"
     bordercolor="#666666"
     borderopacity="1.0"
     inkscape:pageopacity="0.0"
     inkscape:pageshadow="2"
     inkscape:zoom="0.49497475"
     inkscape:cx="-321.14524"
     inkscape:cy="61.819735"
     inkscape:document-units="mm"
     inkscape:current-layer="layer1"
     showgrid="false"
     inkscape:window-width="1366"
     inkscape:window-height="709"
     inkscape:window-x="-8"
     inkscape:window-y="-8"
     inkscape:window-maximized="1" />
  <metadata
     id="metadata1740">
    <rdf:RDF>
      <cc:Work
         rdf:about="">
        <dc:format>image/svg+xml</dc:format>
        <dc:type
           rdf:resource="http://purl.org/dc/dcmitype/StillImage" />
        <dc:title />
      </cc:Work>
    </rdf:RDF>
  </metadata>
  <g
     inkscape:label="Layer 1"
     inkscape:groupmode="layer"
     id="layer1"
     transform="translate(-84.184316,-127.68432)">
    <path
       sodipodi:nodetypes="ccccccccccc"
       inkscape:connector-curvature="0"
       id="path1649"
       d="m 105.03055,142.0049 -3.79437,6.43381 3.81298,6.4533 3.60083,-5.83745 1.94719,0.0212 -5.50779,9.35003 -5.91289,-9.97889 5.87208,-9.87457 5.69485,9.51296 -2.0985,-0.008 z"
       style="display:inline;opacity:1;fill:#323232;fill-opacity:1;stroke:#000000;stroke-width:0.26458332;stroke-opacity:1" />
    <path
       inkscape:connector-curvature="0"
       id="path1657"
       d="M 105,133.96601 A 14.533982,14.533984 0 0 0 90.466004,148.50001 14.533982,14.533984 0 0 0 105,163.03399 14.533982,14.533984 0 0 0 119.534,148.50001 14.533982,14.533984 0 0 0 105,133.96601 Z m -0.0207,1.18906 a 13.263248,13.26325 0 0 1 13.26328,13.26329 13.263248,13.26325 0 0 1 -13.26328,13.26327 13.263248,13.26325 0 0 1 -13.263275,-13.26327 13.263248,13.26325 0 0 1 13.263275,-13.26329 z"
       style="display:inline;opacity:1;fill:#323232;fill-opacity:1;stroke:#000000;stroke-width:0.34341899;stroke-opacity:0.96482412" />
    <path
       inkscape:connector-curvature="0"
       id="path1665"
       d="m 104.99974,131.13336 a 17.366709,17.366711 0 0 0 -17.36638,17.3669 17.366709,17.366711 0 0 0 17.36638,17.36638 17.366709,17.366711 0 0 0 17.3669,-17.36638 17.366709,17.366711 0 0 0 -17.3669,-17.3669 z m 0.0713,1.50533 a 15.874998,15.875 0 0 1 15.875,15.875 15.874998,15.875 0 0 1 -15.875,15.875 15.874998,15.875 0 0 1 -15.874999,-15.875 15.874998,15.875 0 0 1 15.874999,-15.875 z"
       style="display:inline;opacity:1;fill:#323232;fill-opacity:1;stroke:#110000;stroke-width:0.4814533;stroke-opacity:1" />
    <path
       inkscape:connector-curvature="0"
       id="path1673"
       d="m 105.00025,127.92839 a 20.571546,20.571548 0 0 0 -20.571865,20.57187 20.571546,20.571548 0 0 0 20.571865,20.57136 20.571546,20.571548 0 0 0 20.57137,-20.57136 20.571546,20.571548 0 0 0 -20.57137,-20.57187 z m -0.0155,2.28927 a 18.331842,18.331844 0 0 1 18.33169,18.33221 18.331842,18.331844 0 0 1 -18.33169,18.3317 18.331842,18.331844 0 0 1 -18.332206,-18.3317 18.331842,18.331844 0 0 1 18.332206,-18.33221 z"
       style="display:inline;opacity:1;fill:#323232;fill-opacity:1;stroke:#000000;stroke-width:0.48813841;stroke-opacity:1" />
  </g>
</svg>
